<svg width="19" height="15" viewBox="0 0 19 15" fill="none" xmlns="http://www.w3.org/2000/svg">
<path d="M1.9 15C1.3775 15 0.930367 14.8166 0.5586 14.4497C0.186833 14.0828 0.000633333 13.6412 0 13.125V1.875C0 1.35937 0.1862 0.918125 0.5586 0.55125C0.931 0.184375 1.37813 0.000625 1.9 0H17.1C17.6225 0 18.0699 0.18375 18.4423 0.55125C18.8147 0.91875 19.0006 1.36 19 1.875V13.125C19 13.6406 18.8141 14.0822 18.4423 14.4497C18.0706 14.8172 17.6231 15.0006 17.1 15H1.9ZM9.5 8.4375L17.1 3.75V1.875L9.5 6.5625L1.9 1.875V3.75L9.5 8.4375Z" fill="#85B6FF"/>
</svg>
