<svg width="16" height="20" viewBox="0 0 16 20" fill="none" xmlns="http://www.w3.org/2000/svg">
<path d="M4 8V5C4 3.93913 4.42143 2.92172 5.17157 2.17157C5.92172 1.42143 6.93913 1 8 1C9.06087 1 10.0783 1.42143 10.8284 2.17157C11.5786 2.92172 12 3.93913 12 5V8" stroke="#85B6FF" stroke-linecap="round"/>
<path d="M1 8H15V17C15 17.5304 14.7893 18.0391 14.4142 18.4142C14.0391 18.7893 13.5304 19 13 19H3C2.46957 19 1.96086 18.7893 1.58579 18.4142C1.21071 18.0391 1 17.5304 1 17V8Z" stroke="#85B6FF" stroke-linejoin="round"/>
<path d="M10.5 13.5H10.51V13.51H10.5V13.5Z" stroke="#85B6FF" stroke-width="1.5" stroke-linejoin="round"/>
</svg>
