<svg width="19" height="18" viewBox="0 0 19 18" fill="none" xmlns="http://www.w3.org/2000/svg">
<path d="M18.8751 16.4159C17.669 14.3372 15.7857 12.7175 13.5284 11.8176C14.651 10.9908 15.4802 9.83817 15.8985 8.5229C16.3169 7.20763 16.3033 5.79643 15.8596 4.48919C15.4158 3.18195 14.5645 2.04496 13.4262 1.23926C12.2879 0.433557 10.9203 0 9.51714 0C8.11398 0 6.74638 0.433557 5.60807 1.23926C4.46976 2.04496 3.61845 3.18195 3.17473 4.48919C2.73101 5.79643 2.71737 7.20763 3.13575 8.5229C3.55413 9.83817 4.38331 10.9908 5.50585 11.8176C3.24854 12.7175 1.36528 14.3372 0.159211 16.4159C0.0844789 16.5339 0.0346702 16.6655 0.0127461 16.8028C-0.00917791 16.9401 -0.00276982 17.0803 0.0315896 17.2151C0.065949 17.3499 0.127558 17.4765 0.212755 17.5875C0.297951 17.6984 0.404995 17.7914 0.527524 17.861C0.650052 17.9305 0.785564 17.9751 0.926002 17.9922C1.06644 18.0092 1.20894 17.9984 1.34502 17.9603C1.48111 17.9222 1.60801 17.8576 1.71817 17.7704C1.82833 17.6831 1.91951 17.5751 1.98629 17.4525C3.58025 14.7469 6.39519 13.1332 9.51714 13.1332C12.6391 13.1332 15.454 14.7478 17.048 17.4525C17.1927 17.6811 17.4223 17.8454 17.6881 17.9107C17.9539 17.976 18.2352 17.9373 18.4725 17.8027C18.7098 17.6681 18.8844 17.4481 18.9595 17.1893C19.0347 16.9305 19.0044 16.6532 18.8751 16.4159ZM4.94286 6.56792C4.94286 5.67947 5.21114 4.81098 5.71376 4.07226C6.21639 3.33355 6.9308 2.75779 7.76664 2.41779C8.60248 2.0778 9.52222 1.98884 10.4095 2.16217C11.2969 2.33549 12.1119 2.76332 12.7517 3.39155C13.3914 4.01978 13.827 4.82019 14.0035 5.69156C14.18 6.56294 14.0894 7.46614 13.7432 8.28696C13.397 9.10778 12.8107 9.80934 12.0585 10.3029C11.3062 10.7965 10.4219 11.06 9.51714 11.06C8.3044 11.0586 7.14172 10.5849 6.28418 9.74278C5.42664 8.90065 4.94426 7.75887 4.94286 6.56792Z" fill="#60A5FA"/>
</svg>
